<svg xmlns="http://www.w3.org/2000/svg" xmlns:xlink="http://www.w3.org/1999/xlink"><symbol id="accordion-arrow" viewBox="0 0 7 12"><g fill="none"><path d="M0.289998 0.709992C-0.100002 1.09999 -0.100002 1.72999 0.289998 2.11999L4.17 5.99999L0.289998 9.87999C-0.100002 10.27 -0.100002 10.9 0.289998 11.29C0.679998 11.68 1.31 11.68 1.7 11.29L6.29 6.69999C6.68 6.30999 6.68 5.67999 6.29 5.28999L1.7 0.699991C1.32 0.319991 0.679998 0.319992 0.289998 0.709992Z" fill="#949494"/></g></symbol><symbol id="arrrow-slider" viewBox="0 0 7 12"><g fill="none"><path d="M0.289998 0.709999C-0.100002 1.1 -0.100002 1.73 0.289998 2.12L4.17 6L0.289998 9.88C-0.100002 10.27 -0.100002 10.9 0.289998 11.29C0.679998 11.68 1.31 11.68 1.7 11.29L6.29 6.7C6.68 6.31 6.68 5.68 6.29 5.29L1.7 0.699999C1.32 0.319999 0.679998 0.319999 0.289998 0.709999Z" fill="#1A1A1A"/></g></symbol><symbol id="dzen" viewBox="0 0 36 36"><g fill="none"><path fill-rule="evenodd" clip-rule="evenodd" d="M36.0009 18.1982V17.9993V17.8011C28.0305 17.5599 24.3857 17.3611 21.4787 14.5218C18.6402 11.6154 18.4405 7.97066 18.2 -0.00012207H18.001H17.8021C17.5616 7.97066 17.362 11.6154 14.5234 14.5218C11.6164 17.3611 7.97161 17.5599 0.00128174 17.8011V17.9993V18.1982C7.97161 18.4394 11.6164 18.6383 14.5234 21.4769C17.362 24.384 17.5616 28.0287 17.8021 35.9995H18.001H18.2C18.4405 28.0287 18.6402 24.384 21.4787 21.4769C24.3857 18.6383 28.0305 18.4394 36.0009 18.1982Z" fill="#36BA5F"/></g></symbol><symbol id="facebook" viewBox="0 0 11 24"><g fill="none"><path d="M10.5573 11.9766H7.29462V23.9996H2.35138V11.9766H0.000366211V7.75125H2.35138V5.01696C2.35138 3.06166 3.27478 -0.000152588 7.33862 -0.000152588L11.0002 0.0152561V4.11668H8.3435C7.90771 4.11668 7.29494 4.33569 7.29494 5.26842V7.75518H10.9892L10.5573 11.9766Z" fill="#36BA5F"/></g></symbol><symbol id="instagram" viewBox="0 0 20 20"><g fill="none"><path fill-rule="evenodd" clip-rule="evenodd" d="M0.203552 5.6447C0.203552 2.63815 2.64169 0.200012 5.64824 0.200012H14.3598C17.3663 0.200012 19.8044 2.63815 19.8044 5.6447V14.3562C19.8044 17.3628 17.3663 19.8009 14.3598 19.8009H5.64824C2.64169 19.8009 0.203552 17.3628 0.203552 14.3562V5.6447ZM17.6175 3.46669C17.6175 2.8656 17.1297 2.37775 16.5286 2.37775C15.9275 2.37775 15.4396 2.8656 15.4396 3.46669C15.4396 4.06778 15.9275 4.55563 16.5286 4.55563C17.1297 4.55563 17.6175 4.06778 17.6175 3.46669ZM10.0072 4.55581C13.0137 4.55581 15.4518 6.99394 15.4518 10.0005C15.4518 13.0071 13.0137 15.4452 10.0072 15.4452C7.0006 15.4452 4.56246 13.0071 4.56246 10.0005C4.56246 6.99394 7.0006 4.55581 10.0072 4.55581ZM6.73503 9.99931C6.73503 8.1951 8.19764 6.73249 10.0019 6.73249C11.8061 6.73249 13.2687 8.1951 13.2687 9.99931C13.2687 11.8035 11.8061 13.2661 10.0019 13.2661C8.19764 13.2661 6.73503 11.8035 6.73503 9.99931Z" fill="#36BA5F"/></g></symbol><symbol id="intro-air" viewBox="0 0 263 196"><g fill="none"><path d="M104.795 130.218C98.9136 146.327 94.9879 165.653 105.348 167.512C115.707 169.37 114.322 146.244 126.055 140.56C137.789 134.877 156.942 146.634 163.497 147.997C170.052 149.361 177.308 151.733 176.7 134.822C176.092 117.911 170.476 63.4865 169.043 49.3156C167.61 35.1447 156.281 34.4612 145.517 41.277C134.752 48.0928 54.3434 105.832 47.8639 113.576C41.3845 121.32 41.6582 124.158 47.8219 125.263C53.9857 126.369 73.1823 132.219 83.6415 124.598C99.6497 112.934 133.657 71.9232 139.136 73.193C144.488 74.4331 109.372 117.682 104.795 130.218Z" fill="#5992E8"/><path d="M8.76829 174.438C4.16404 177.132 -0.609453 180.986 1.50506 183.486C3.61958 185.986 7.87372 180.168 11.8132 181.133C15.7527 182.097 18.012 188.714 19.3127 190.34C20.6135 191.967 21.8822 193.975 25.0902 189.801C28.2982 185.627 37.745 171.468 40.2118 167.787C42.6787 164.107 40.0987 161.696 36.1669 161.195C32.2351 160.694 1.51174 158.587 -1.57701 159.159C-4.66577 159.73 -5.16302 160.464 -3.90484 161.952C-2.64667 163.439 0.794284 168.648 4.81259 168.896C10.9627 169.274 27.2467 166.189 28.3082 167.58C29.3451 168.938 12.3515 172.34 8.76829 174.438Z" fill="#5992E8"/><path d="M247.169 20.4142C247.629 23.4757 248.677 26.8781 250.48 26.2772C252.282 25.6763 250.064 22.1307 251.432 20.2157C252.801 18.3007 256.852 18.5086 258.009 18.1582C259.166 17.8077 260.521 17.5565 258.963 14.9287C257.405 12.3009 251.811 4.16041 250.359 2.03824C248.907 -0.0839237 247.052 0.78697 245.935 2.79767C244.818 4.80838 237.064 20.9098 236.707 22.6972C236.349 24.4847 236.638 24.9108 237.71 24.5533C238.783 24.1957 242.331 23.4638 243.33 21.3518C244.859 18.1194 246.704 8.68007 247.682 8.40771C248.638 8.14168 246.81 18.0316 247.169 20.4142Z" fill="#5992E8"/></g></symbol><symbol id="intro-hand" viewBox="0 0 277 226"><g fill="none"><path d="M167.419 124.092C165.061 112.166 160.759 101.073 159.548 90.0395C159.286 87.6571 157.4 85.6565 155.296 85.8218C153.191 85.987 148.623 89.0102 147.447 98.3177C146.595 105.056 152.097 113.893 149.28 116.733C146.463 119.573 169.499 125.4 167.419 124.092Z" fill="#F5C1C7"/><path d="M93.8221 34.8568C88.665 36.4611 84.6419 59.6609 83.0433 66.5425C73.284 108.554 59.9217 157.239 58.7356 162.344C57.253 168.726 59.7234 169.86 62.7187 171.677C65.714 173.494 125.251 187.886 130.408 186.282C134.534 184.998 137.017 175.486 137.017 175.486C146.623 135.121 163.277 61.8665 163.549 58.3425C163.889 53.9375 164.507 51.2786 162.16 49.6124C159.813 47.9462 152.463 46.2387 148.789 45.385C132.186 41.3408 101.926 32.3357 93.8221 34.8568Z" fill="#5992E8"/><path opacity="0.4" d="M125.015 77.869C126.945 79.8288 127.706 81.6705 127.604 84.4191C127.411 89.6093 120.383 91.9464 115.199 91.6354C114.846 91.6142 114.506 91.5753 114.185 91.5152C111.622 91.035 108.971 85.8814 109.886 81.8552C111.173 76.1999 120.17 74.0087 124.72 77.6052C124.825 77.6888 124.924 77.7766 125.015 77.869Z" fill="#FAF8F9"/><path opacity="0.4" d="M121.889 71.7388C120.858 73.1399 119.01 74.2412 117.877 74.5365C117.465 74.644 117.059 74.4624 116.73 74.1901C116.516 74.0118 116.326 73.7916 116.304 73.5132C116.266 73.0258 116.398 72.1848 117.051 71.0107C117.652 69.9291 119.449 69.0974 121.087 68.5642C122.307 68.1674 123.192 68.9858 122.717 70.1766C122.495 70.7314 122.216 71.2944 121.889 71.7388Z" fill="#FAF8F9"/><circle opacity="0.4" cx="149.042" cy="60.3767" r="3.62998" transform="rotate(37.0464 149.042 60.3767)" fill="#FAF8F9"/><path d="M189.171 165.614C167.856 146.995 171.288 133.976 167.464 123.954C165.222 118.077 154.983 108.115 152.94 116.991C151.996 121.093 140.588 114.875 138.508 113.567C132.298 109.661 125.103 103.544 119.91 99.6276C115.458 96.2704 110.193 91.1173 109.428 97.1189C108.664 103.121 120.7 116.489 124.06 120.947C127.42 125.406 130.779 129.865 125.438 131.327C120.096 132.79 99.1744 112.039 92.3445 109.772C85.5145 107.505 82.0441 109.696 94.6475 124.45C107.251 139.203 109.011 146.582 107.884 147.718C106.758 148.854 105.631 149.99 92.263 141.238C78.8949 132.486 69.6307 130.058 67.9408 131.762C66.2508 133.466 67.4661 135.525 68.9566 137.276C73.4459 142.552 92.8761 157.62 94.2743 160.133C95.296 161.97 93.3135 162.575 91.9289 162.498C79.0165 161.781 65.717 158.85 63.9365 159.338C62.1561 159.825 60.5566 162.745 63.8257 165.988C65.9823 168.127 75.4804 173.416 80.2818 175.549C91.8762 182.166 139.778 205.632 143.745 206.863C148.705 208.401 139.548 203.877 144.684 200.931C154.579 195.255 159.771 189.697 166.632 181.701C172.59 174.756 210.486 184.234 189.171 165.614Z" fill="#F5C1C7"/><path d="M237.324 189.662C218.166 180.57 182.132 159.563 176.782 151.302C176.709 151.174 176.632 151.047 176.552 150.919C176.621 151.044 176.698 151.171 176.782 151.302C188.558 171.628 124.572 193.645 142.561 205.261C160.664 216.949 298.934 283.054 302.096 265.007C303.951 254.416 326.308 260.272 329.01 250.006C332.2 237.883 357.769 235.857 352.632 228.593C347.495 221.328 256.786 198.898 237.324 189.662Z" fill="#F5C1C7"/></g></symbol><symbol id="mail" viewBox="0 0 14 11"><g fill="none"><path d="M14 2.85408V8.88461C14 9.44565 13.7695 9.98371 13.3593 10.3804C12.9491 10.7771 12.3927 11 11.8125 11H2.1875C1.60734 11 1.05094 10.7771 0.640704 10.3804C0.230468 9.98371 0 9.44565 0 8.88461V2.85408L6.77775 6.71085C6.84508 6.74925 6.92183 6.7695 7 6.7695C7.07817 6.7695 7.15492 6.74925 7.22225 6.71085L14 2.85408ZM11.8125 2.61907e-08C12.3508 -8.18366e-05 12.8701 0.191744 13.2713 0.53878C13.6725 0.885816 13.9272 1.3637 13.9869 1.881L7 5.85538L0.0131251 1.881C0.0727635 1.3637 0.327533 0.885816 0.728696 0.53878C1.12986 0.191744 1.64925 -8.18366e-05 2.1875 2.61907e-08H11.8125Z" fill="#1A1A1A"/></g></symbol><symbol id="online" viewBox="0 0 14 13"><g fill="none"><path fill-rule="evenodd" clip-rule="evenodd" d="M14 6.09459C14 9.46054 10.8658 12.1892 7 12.1892C6.3067 12.1901 5.61626 12.1005 4.94637 11.9228C4.43537 12.1805 3.262 12.675 1.288 12.9971C1.113 13.025 0.98 12.8439 1.04912 12.682C1.35888 11.9541 1.63888 10.9842 1.72287 10.0996C0.651 9.0287 0 7.62694 0 6.09459C0 2.72863 3.13425 0 7 0C10.8658 0 14 2.72863 14 6.09459ZM4.375 6.09459C4.375 6.3255 4.28281 6.54695 4.11872 6.71023C3.95462 6.87351 3.73206 6.96524 3.5 6.96524C3.26794 6.96524 3.04538 6.87351 2.88128 6.71023C2.71719 6.54695 2.625 6.3255 2.625 6.09459C2.625 5.86367 2.71719 5.64222 2.88128 5.47894C3.04538 5.31566 3.26794 5.22393 3.5 5.22393C3.73206 5.22393 3.95462 5.31566 4.11872 5.47894C4.28281 5.64222 4.375 5.86367 4.375 6.09459ZM7.875 6.09459C7.875 6.3255 7.78281 6.54695 7.61872 6.71023C7.45462 6.87351 7.23206 6.96524 7 6.96524C6.76794 6.96524 6.54538 6.87351 6.38128 6.71023C6.21719 6.54695 6.125 6.3255 6.125 6.09459C6.125 5.86367 6.21719 5.64222 6.38128 5.47894C6.54538 5.31566 6.76794 5.22393 7 5.22393C7.23206 5.22393 7.45462 5.31566 7.61872 5.47894C7.78281 5.64222 7.875 5.86367 7.875 6.09459ZM10.5 6.96524C10.7321 6.96524 10.9546 6.87351 11.1187 6.71023C11.2828 6.54695 11.375 6.3255 11.375 6.09459C11.375 5.86367 11.2828 5.64222 11.1187 5.47894C10.9546 5.31566 10.7321 5.22393 10.5 5.22393C10.2679 5.22393 10.0454 5.31566 9.88128 5.47894C9.71719 5.64222 9.625 5.86367 9.625 6.09459C9.625 6.3255 9.71719 6.54695 9.88128 6.71023C10.0454 6.87351 10.2679 6.96524 10.5 6.96524Z" fill="#1A1A1A"/></g></symbol><symbol id="phone" viewBox="0 0 16 16"><g fill="none"><path d="M13.894 2.55413L12.2138 0.875486C12.0953 0.75644 11.9544 0.661986 11.7993 0.597548C11.6441 0.53311 11.4778 0.49996 11.3098 0.5C10.9675 0.5 10.6456 0.634102 10.4042 0.875486L8.59625 2.6835C8.47721 2.80202 8.38276 2.9429 8.31832 3.09803C8.25388 3.25317 8.22073 3.41951 8.22077 3.5875C8.22077 3.92985 8.35487 4.2517 8.59625 4.49308L9.91832 5.81517C9.60885 6.49729 9.1786 7.11783 8.64831 7.64684C8.11936 8.17842 7.49889 8.61025 6.81667 8.9216L5.4946 7.59951C5.37608 7.48047 5.2352 7.38601 5.08007 7.32158C4.92493 7.25714 4.75859 7.22399 4.59061 7.22403C4.24826 7.22403 3.92642 7.35813 3.68504 7.59951L1.87548 9.40595C1.75629 9.52469 1.66176 9.66583 1.59732 9.82124C1.53288 9.97666 1.4998 10.1433 1.5 10.3115C1.5 10.6539 1.6341 10.9757 1.87548 11.2171L3.55252 12.8942C3.93746 13.2807 4.46913 13.5 5.015 13.5C5.13016 13.5 5.2406 13.4905 5.34946 13.4716C7.47612 13.1214 9.58544 11.9902 11.2877 10.2894C12.9884 8.59029 14.118 6.48252 14.473 4.34951C14.5803 3.69794 14.3641 3.02743 13.894 2.55413Z" fill="#1A1A1A"/></g></symbol><symbol id="question-chat" viewBox="0 0 16 16"><g fill="none"><path d="M14.4 3.2H13.6V9.6C13.6 10.04 13.24 10.4 12.8 10.4H3.2V11.2C3.2 12.08 3.92 12.8 4.8 12.8H12.8L16 16V4.8C16 3.92 15.28 3.2 14.4 3.2ZM12 7.2V1.6C12 0.72 11.28 0 10.4 0H1.6C0.72 0 0 0.72 0 1.6V12L3.2 8.8H10.4C11.28 8.8 12 8.08 12 7.2Z" fill="white"/></g></symbol><symbol id="question-mail" viewBox="0 0 16 12"><g fill="none"><path d="M14.4 0H1.6C0.72 0 0 0.675 0 1.5V10.5C0 11.325 0.72 12 1.6 12H14.4C15.28 12 16 11.325 16 10.5V1.5C16 0.675 15.28 0 14.4 0ZM14.08 3.1875L8.848 6.255C8.328 6.5625 7.672 6.5625 7.152 6.255L1.92 3.1875C1.72 3.0675 1.6 2.865 1.6 2.6475C1.6 2.145 2.184 1.845 2.64 2.1075L8 5.25L13.36 2.1075C13.816 1.845 14.4 2.145 14.4 2.6475C14.4 2.865 14.28 3.0675 14.08 3.1875Z" fill="#36BA5F"/></g></symbol><symbol id="question-phone" viewBox="0 0 16 16"><g fill="none"><path d="M14.4323 10.9109L12.17 10.6526C11.6267 10.5903 11.0923 10.7773 10.7093 11.1603L9.07041 12.7992C6.54978 11.5166 4.4834 9.45909 3.20082 6.92954L4.84858 5.28177C5.23157 4.89878 5.41862 4.36436 5.35627 3.82104L5.09797 1.57652C4.99109 0.676922 4.23401 0 3.32551 0H1.78464C0.778165 0 -0.0590758 0.837245 0.0032719 1.84372C0.475333 9.45018 6.55869 15.5247 14.1562 15.9967C15.1627 16.0591 15.9999 15.2218 15.9999 14.2154V12.6745C16.0088 11.7749 15.3319 11.0178 14.4323 10.9109Z" fill="#36BA5F"/></g></symbol><symbol id="share" viewBox="0 0 18 20"><g fill="none"><path d="M15 14.08C14.24 14.08 13.56 14.38 13.04 14.85L5.91 10.7C5.96 10.47 6 10.24 6 10C6 9.76 5.96 9.53 5.91 9.3L12.96 5.19C13.5 5.69 14.21 6 15 6C16.66 6 18 4.66 18 3C18 1.34 16.66 0 15 0C13.34 0 12 1.34 12 3C12 3.24 12.04 3.47 12.09 3.7L5.04 7.81C4.5 7.31 3.79 7 3 7C1.34 7 0 8.34 0 10C0 11.66 1.34 13 3 13C3.79 13 4.5 12.69 5.04 12.19L12.16 16.35C12.11 16.56 12.08 16.78 12.08 17C12.08 18.61 13.39 19.92 15 19.92C16.61 19.92 17.92 18.61 17.92 17C17.92 15.39 16.61 14.08 15 14.08Z" fill="#36BA5F"/></g></symbol><symbol id="star" viewBox="0 0 16 15"><g fill="none"><path fill-rule="evenodd" clip-rule="evenodd" d="M10.8101 3.83127C10.4875 3.841 10.1801 3.69443 9.98451 3.4377L7.93552 0.747908C7.4055 0.0521323 6.3128 0.23425 6.03709 1.06431L4.97165 4.27197C4.86987 4.57839 4.6264 4.81682 4.31791 4.91216L1.03898 5.92556C0.156267 6.19837 -0.00636112 7.37764 0.769558 7.87919L3.45772 9.61681C3.74765 9.80421 3.92041 10.1279 3.91473 10.4731L3.86255 13.6432C3.84783 14.5372 4.85763 15.0665 5.58442 14.5458L8.46604 12.4813C8.71795 12.3008 9.0393 12.2473 9.33609 12.3364L12.7303 13.3559C13.5866 13.6131 14.3705 12.7851 14.0669 11.9442L12.9905 8.96207C12.8733 8.63735 12.9319 8.27514 13.1454 8.00391L15.1257 5.4889C15.6973 4.76304 15.1614 3.7001 14.2379 3.72794L10.8101 3.83127Z" fill="#1A1A1A"/></g></symbol><symbol id="tiktok" viewBox="0 0 20 23"><g fill="none"><path d="M19.0541 5.93278C17.8245 5.93278 16.69 5.52543 15.7789 4.83824C14.734 4.05047 13.9833 2.89491 13.7182 1.56302C13.6525 1.23394 13.6172 0.894341 13.6138 0.546326H10.1012V10.1443L10.097 15.4016C10.097 16.8071 9.18176 17.9989 7.91299 18.418C7.54478 18.5396 7.14711 18.5973 6.73302 18.5746C6.20448 18.5455 5.70917 18.386 5.27868 18.1285C4.36256 17.5806 3.74143 16.5866 3.7246 15.4496C3.69809 13.6725 5.13476 12.2236 6.91061 12.2236C7.26115 12.2236 7.5978 12.2808 7.91299 12.3848V9.76138V8.81833C7.58055 8.76909 7.24221 8.74342 6.90009 8.74342C4.95633 8.74342 3.1384 9.55139 1.83892 11.007C0.85673 12.107 0.267585 13.5104 0.176689 14.982C0.0575975 16.9153 0.764991 18.753 2.13686 20.1089C2.33843 20.3079 2.5501 20.4926 2.77145 20.6631C3.94763 21.5682 5.38557 22.0589 6.90009 22.0589C7.24221 22.0589 7.58055 22.0337 7.91299 21.9844C9.32778 21.7749 10.6332 21.1272 11.6633 20.1089C12.9291 18.8578 13.6285 17.1968 13.6361 15.4289L13.618 7.57818C14.2219 8.04402 14.8821 8.42949 15.5908 8.72869C16.6929 9.1937 17.8615 9.42935 19.0642 9.42893V6.87836V5.93194C19.0651 5.93278 19.055 5.93278 19.0541 5.93278Z" fill="#36BA5F"/></g></symbol><symbol id="twitter" viewBox="0 0 24 19"><g fill="none"><path d="M23.3029 2.24153C22.4458 2.62158 21.5239 2.87862 20.557 2.99342C21.5442 2.40196 22.3018 1.46612 22.6594 0.349168C21.7357 0.897127 20.7121 1.29464 19.6237 1.5089C18.7517 0.580188 17.5092 -0.000213623 16.1334 -0.000213623C13.4938 -0.000213623 11.353 2.14064 11.353 4.78025C11.353 5.15495 11.3954 5.51966 11.4774 5.86975C7.50442 5.67046 3.98173 3.7674 1.62376 0.87431C1.21234 1.5802 0.97633 2.40196 0.97633 3.27791C0.97633 4.93605 1.82091 6.39989 3.10292 7.25694C2.31967 7.23234 1.58204 7.01737 0.937827 6.65836C0.937471 6.67868 0.93747 6.699 0.93747 6.71897C0.93747 9.03522 2.58598 10.9672 4.77247 11.406C4.37175 11.5158 3.94857 11.5739 3.51327 11.5739C3.20453 11.5739 2.90542 11.5444 2.61379 11.4887C3.222 13.3875 4.98709 14.7697 7.07946 14.8086C5.44307 16.0909 3.38207 16.855 1.14175 16.855C0.756719 16.855 0.375252 16.8325 0.00198364 16.7879C2.11646 18.1448 4.62986 18.9359 7.32937 18.9359C16.1224 18.9359 20.931 11.6517 20.931 5.33392C20.931 5.12678 20.9264 4.92036 20.9171 4.71573C21.8519 4.04192 22.6622 3.20019 23.3029 2.24153Z" fill="#36BA5F"/></g></symbol><symbol id="vk" viewBox="0 0 26 14"><g fill="none"><path d="M23.1737 9.62652C25.1957 11.3914 25.616 12.0214 25.6847 12.1289C26.5226 13.4352 24.7555 13.5943 24.7555 13.5943H21.0315C21.0315 13.5943 20.1249 13.6041 19.3503 13.0993C18.0876 12.2862 16.7652 10.7098 15.836 10.9835C15.0559 11.2127 15.0631 12.2489 15.0631 13.1349C15.0631 13.4521 14.7856 13.5943 14.1593 13.5943C13.5329 13.5943 13.2725 13.5943 12.995 13.5943C10.955 13.5943 8.74134 12.9189 6.53314 10.6502C3.4093 7.44313 0.669615 0.982714 0.669615 0.982714C0.669615 0.982714 0.507819 0.657472 0.684077 0.459305C0.883837 0.237145 1.42707 0.265581 1.42707 0.265581L5.03811 0.264693C5.03811 0.264693 5.37797 0.327786 5.62202 0.496628C5.82359 0.635256 5.93567 0.90007 5.93567 0.90007C5.93567 0.90007 6.54218 2.8693 7.31501 4.12494C8.8245 6.57581 9.52682 6.63802 10.0393 6.37409C10.7877 5.99198 10.5437 3.38649 10.5437 3.38649C10.5437 3.38649 10.5771 2.26769 10.1867 1.76916C9.88566 1.38349 9.30989 1.17821 9.05861 1.14622C8.85523 1.12045 9.19509 0.770329 9.62806 0.570385C10.2065 0.317123 10.9938 0.252252 12.3515 0.264693C13.4081 0.274468 13.7127 0.336673 14.1249 0.42998C15.3714 0.712567 15.0631 1.45814 15.0631 4.07607C15.0631 4.91495 14.9456 6.09417 15.5892 6.48517C15.8667 6.65401 16.8176 6.86018 18.5097 4.15871C19.3132 2.87729 19.9523 0.751667 19.9523 0.751667C19.9523 0.751667 20.0842 0.517955 20.2894 0.402432C20.4991 0.284243 20.4928 0.286909 20.7802 0.286909C21.0677 0.286909 23.9502 0.264693 24.5829 0.264693C25.2147 0.264693 25.8077 0.257584 25.9098 0.621926C26.0562 1.14534 25.4434 2.93861 23.8905 4.88473C21.3388 8.0785 21.0559 7.77992 23.1737 9.62652Z" fill="#36BA5F"/></g></symbol></svg>